<svg version="1.1" id="Layer_1" xmlns="http://www.w3.org/2000/svg" xmlns:xlink="http://www.w3.org/1999/xlink" x="0px" y="0px"
	 width="100%" viewBox="0 0 512 512" enable-background="new 0 0 512 512" xml:space="preserve">
<path fill="#FFFFFF" opacity="1.000000" stroke="none" 
	d="
M223.000000,513.000000 
	C148.684677,513.000000 74.869362,513.000000 1.027019,513.000000 
	C1.027019,342.392975 1.027019,171.785965 1.027019,1.089473 
	C171.565353,1.089473 342.130768,1.089473 512.848083,1.089473 
	C512.848083,171.666565 512.848083,342.333252 512.848083,513.000000 
	C416.452606,513.000000 319.976288,513.000000 223.000000,513.000000 
M239.000000,326.500000 
	C239.000000,269.090973 239.000000,211.681946 239.000000,154.292679 
	C229.911880,154.292679 221.487900,154.292679 212.543533,154.292679 
	C212.543533,182.321625 212.543533,210.062683 212.543533,237.895630 
	C179.794220,237.895630 147.573120,237.895630 114.889435,237.895630 
	C114.889435,209.828888 114.889435,182.092133 114.889435,154.336884 
	C106.032471,154.336884 97.643524,154.336884 89.368103,154.336884 
	C89.368103,221.716766 89.368103,288.759125 89.368103,355.759125 
	C98.008820,355.759125 106.279190,355.759125 115.055870,355.759125 
	C115.055870,324.136719 115.055870,292.750336 115.055870,261.299927 
	C147.791962,261.299927 180.016617,261.299927 212.838501,261.299927 
	C212.838501,292.962006 212.838501,324.329651 212.838501,355.700684 
	C221.849762,355.700684 230.259323,355.700684 239.000000,355.700684 
	C239.000000,346.103516 239.000000,336.801758 239.000000,326.500000 
M285.000000,311.500000 
	C285.000000,326.253998 285.000000,341.007996 285.000000,355.606567 
	C294.084167,355.606567 302.475708,355.606567 311.184204,355.606567 
	C311.184204,323.947723 311.184204,292.681213 311.184204,261.272583 
	C343.745514,261.272583 375.972473,261.272583 408.790466,261.272583 
	C408.790466,292.911316 408.790466,324.283508 408.790466,355.724915 
	C417.795410,355.724915 426.206329,355.724915 434.693726,355.724915 
	C434.693726,288.407288 434.693726,221.365204 434.693726,154.272217 
	C425.963715,154.272217 417.542480,154.272217 408.590637,154.272217 
	C408.590637,182.275070 408.590637,210.011154 408.590637,237.922272 
	C375.835327,237.922272 343.615631,237.922272 310.935181,237.922272 
	C310.935181,209.881073 310.935181,182.142715 310.935181,154.312653 
	C302.082550,154.312653 293.694336,154.312653 285.000000,154.312653 
	C285.000000,206.583130 285.000000,258.541565 285.000000,311.500000 
z"/>
<path fill="#DA642A" opacity="1.000000" stroke="none" 
	d="
M239.000000,327.000000 
	C239.000000,336.801758 239.000000,346.103516 239.000000,355.700684 
	C230.259323,355.700684 221.849762,355.700684 212.838501,355.700684 
	C212.838501,324.329651 212.838501,292.962006 212.838501,261.299927 
	C180.016617,261.299927 147.791962,261.299927 115.055870,261.299927 
	C115.055870,292.750336 115.055870,324.136719 115.055870,355.759125 
	C106.279190,355.759125 98.008820,355.759125 89.368103,355.759125 
	C89.368103,288.759125 89.368103,221.716766 89.368103,154.336884 
	C97.643524,154.336884 106.032471,154.336884 114.889435,154.336884 
	C114.889435,182.092133 114.889435,209.828888 114.889435,237.895630 
	C147.573120,237.895630 179.794220,237.895630 212.543533,237.895630 
	C212.543533,210.062683 212.543533,182.321625 212.543533,154.292679 
	C221.487900,154.292679 229.911880,154.292679 239.000000,154.292679 
	C239.000000,211.681946 239.000000,269.090973 239.000000,327.000000 
z"/>
<path fill="#DA642A" opacity="1.000000" stroke="none" 
	d="
M285.000000,311.000000 
	C285.000000,258.541565 285.000000,206.583130 285.000000,154.312653 
	C293.694336,154.312653 302.082550,154.312653 310.935181,154.312653 
	C310.935181,182.142715 310.935181,209.881073 310.935181,237.922272 
	C343.615631,237.922272 375.835327,237.922272 408.590637,237.922272 
	C408.590637,210.011154 408.590637,182.275070 408.590637,154.272217 
	C417.542480,154.272217 425.963715,154.272217 434.693726,154.272217 
	C434.693726,221.365204 434.693726,288.407288 434.693726,355.724915 
	C426.206329,355.724915 417.795410,355.724915 408.790466,355.724915 
	C408.790466,324.283508 408.790466,292.911316 408.790466,261.272583 
	C375.972473,261.272583 343.745514,261.272583 311.184204,261.272583 
	C311.184204,292.681213 311.184204,323.947723 311.184204,355.606567 
	C302.475708,355.606567 294.084167,355.606567 285.000000,355.606567 
	C285.000000,341.007996 285.000000,326.253998 285.000000,311.000000 
z"/>
</svg>